<?xml version="1.0" encoding="UTF-8"?>
<svg id="Main" xmlns="http://www.w3.org/2000/svg" viewBox="0 0 480 480">
  <defs>
    <style>
      .cls-1 {
        fill: #fff;
      }
    </style>
  </defs>
  <path class="cls-1" d="m388.3,25.68c-46.38-17.53-139.56,107.59-139.56,107.59l83.71,55.23c-4-35.94.23-92.6,51.83-137.92,14.65,12.52,31.55,141.11,24.8,188.47l2.72,1.8c15.37-33.9-.9-206.64-23.49-215.17Z"/>
  <path class="cls-1" d="m95.72,50.59c51.6,45.31,55.83,101.98,51.83,137.92l83.71-55.23S138.07,8.16,91.7,25.68c-22.6,8.53-38.87,181.27-23.5,215.17l2.73-1.8c-6.76-47.36,10.14-175.95,24.79-188.47Z"/>
  <path class="cls-1" d="m394.17,142.51c-28.67,5.06-35.2,45.22-35.2,45.22l43.38,38.01c-17.01-41.62-8.18-83.23-8.18-83.23Z"/>
  <path class="cls-1" d="m377.26,106.84c-31.42,28.12-36.76,62.94-36.76,62.94l43.37,38c-17.01-41.62-6.61-100.94-6.61-100.94Z"/>
  <path class="cls-1" d="m85.82,142.51c28.67,5.06,35.2,45.22,35.2,45.22l-43.38,38.02c17.01-41.63,8.18-83.24,8.18-83.24Z"/>
  <path class="cls-1" d="m102.73,106.84c31.42,28.12,36.77,62.94,36.77,62.94l-43.38,38c17.01-41.62,6.61-100.94,6.61-100.94Z"/>
  <path class="cls-1" d="m240,103.53c-94.39,0-216,148.2-216,232.88,133.53,0,127.5,119.59,216,119.59s82.47-119.59,216-119.59c0-84.68-121.61-232.88-216-232.88Zm-64.46,166.31s-1.63-1.25-4.35-3.37c-19.59-14.92-37.09-30.97-51.68-49.94,30.64,11.67,61.27,20.42,94.83,21.88-11.67,11.67-26.26,21.88-38.8,31.42Zm133.27-3.37c-2.72,2.11-4.35,3.37-4.35,3.37-12.54-9.54-27.12-19.75-38.8-31.42,33.55-1.46,64.19-10.21,94.83-21.88-14.59,18.97-32.09,35.01-51.68,49.94Z"/>
</svg>